<svg width="34" height="42" viewBox="0 0 34 42" fill="none" xmlns="http://www.w3.org/2000/svg">
<path d="M17 20.3501C18.0719 20.3501 18.9849 19.9832 19.7389 19.2496C20.4929 18.516 20.8699 17.6278 20.8699 16.5848C20.8699 15.5419 20.4929 14.6537 19.7389 13.9201C18.9849 13.1864 18.0719 12.8196 17 12.8196C15.9281 12.8196 15.0151 13.1864 14.2611 13.9201C13.5071 14.6537 13.1301 15.5419 13.1301 16.5848C13.1301 17.6278 13.5071 18.516 14.2611 19.2496C15.0151 19.9832 15.9281 20.3501 17 20.3501ZM17 38.8713C21.5026 35.0583 25.0623 31.1802 27.6791 27.2372C30.2959 23.2942 31.6043 19.8839 31.6043 17.0062C31.6043 12.7419 30.2168 9.22253 27.4419 6.44793C24.6669 3.67333 21.1863 2.28603 17 2.28603C12.8137 2.28603 9.33311 3.67333 6.55814 6.44793C3.78316 9.22253 2.39568 12.7419 2.39568 17.0062C2.39568 19.8839 3.70408 23.2942 6.32087 27.2372C8.93767 31.1802 12.4974 35.0583 17 38.8713ZM17 42C11.3702 37.156 7.1294 32.6385 4.27764 28.4475C1.42588 24.2565 0 20.4427 0 17.0062C0 12.0756 1.65009 8.00854 4.95027 4.80512C8.25045 1.60171 12.267 0 17 0C21.733 0 25.7495 1.60171 29.0497 4.80512C32.3499 8.00854 34 12.0756 34 17.0062C34 20.4427 32.5741 24.2565 29.7224 28.4475C26.8706 32.6385 22.6298 37.156 17 42Z" fill="#405220"/>
</svg>
