<svg width="36" height="35" viewBox="0 0 36 35" fill="none" xmlns="http://www.w3.org/2000/svg">
<path d="M5.01221 30.0858C3.43054 28.5272 2.19975 26.745 1.31985 24.7391C0.439951 22.7333 0 20.6594 0 18.5176C0 16.3625 0.425362 14.2141 1.27609 12.0725C2.12681 9.9309 3.49196 7.9429 5.37154 6.10852C6.89179 4.62483 8.8182 3.44837 11.1508 2.57914C13.4834 1.70991 16.0186 1.07522 18.7566 0.675075C21.4946 0.274927 24.3324 0.0538713 27.27 0.0119092C30.2076 -0.0300554 33.037 0.0388835 35.7581 0.218726C35.9546 2.79046 36.0314 5.50307 35.9884 8.35655C35.9454 11.21 35.7082 13.9773 35.2767 16.6585C34.8452 19.3396 34.1864 21.8274 33.3003 24.1219C32.4143 26.4163 31.2219 28.2949 29.7232 29.7576C27.8835 31.583 25.8987 32.9131 23.7689 33.7479C21.639 34.5826 19.5013 35 17.3557 35C15.1064 35 12.8822 34.5706 10.6832 33.7119C8.48421 32.8531 6.59389 31.6445 5.01221 30.0858ZM9.04779 30.2522C10.2978 31.0645 11.6545 31.6692 13.1179 32.0663C14.5813 32.4635 15.9979 32.6621 17.3677 32.6621C19.225 32.6621 21.0622 32.3091 22.8792 31.6032C24.6962 30.8974 26.4078 29.7306 28.014 28.1031C28.7269 27.4017 29.4497 26.4178 30.1824 25.1514C30.9151 23.8851 31.5488 22.229 32.0835 20.1833C32.6182 18.1376 33.0242 15.6633 33.3014 12.7604C33.5786 9.85747 33.6481 6.39927 33.5099 2.38582C31.5536 2.30789 29.3323 2.29365 26.8462 2.34311C24.3601 2.39257 21.8762 2.60013 19.3947 2.96581C16.9131 3.33149 14.5821 3.88899 12.4015 4.63833C10.221 5.38767 8.47808 6.39927 7.17282 7.67315C5.40687 9.39662 4.16918 11.183 3.45973 13.0324C2.75028 14.8818 2.39556 16.6052 2.39556 18.2028C2.39556 20.322 2.82936 22.301 3.69698 24.1398C4.5646 25.9787 5.61418 27.4137 6.84573 28.4448C7.84695 25.6872 9.39484 23.0413 11.4894 20.507C13.584 17.9728 16.5139 15.6101 20.2792 13.4191C17.5274 15.754 15.214 18.238 13.339 20.8712C11.4641 23.5044 10.0337 26.6314 9.04779 30.2522Z" fill="#405220"/>
</svg>
