<svg width="40" height="42" viewBox="0 0 40 42" fill="none" xmlns="http://www.w3.org/2000/svg">
<path d="M7.15291 42V33.2231C4.88782 31.2009 3.1294 28.9281 1.87764 26.4048C0.62588 23.8815 0 21.2872 0 18.6218C0 13.4466 1.85701 9.04915 5.57102 5.42949C9.28504 1.80983 13.7862 0 19.0744 0C23.3693 0 27.2506 1.27959 30.7186 3.83878C34.1865 6.39797 36.4356 9.70278 37.4657 13.7532L39.9234 23.3333C40.0915 23.9227 39.983 24.4589 39.5978 24.942C39.2127 25.4251 38.6991 25.6667 38.0572 25.6667H33.3803V33.5641C33.3803 34.6081 33.0051 35.4973 32.2546 36.2317C31.5042 36.9661 30.5955 37.3333 29.5287 37.3333H23.8431V42H21.4588V35H29.5287C29.9567 35 30.3082 34.8654 30.5833 34.5961C30.8584 34.3269 30.996 33.9829 30.996 33.5641V23.3333H37.4336L35.1685 14.2917C34.2545 10.7229 32.292 7.83762 29.2811 5.63591C26.2702 3.4342 22.8679 2.33335 19.0744 2.33335C14.4648 2.33335 10.5307 3.91582 7.27214 7.08078C4.01359 10.2457 2.38432 14.0838 2.38432 18.5949C2.38432 20.9282 2.87111 23.1374 3.8447 25.2224C4.8183 27.3075 6.19921 29.1667 7.98743 30.8L9.53723 32.2V42H7.15291ZM17.7447 27.0128H20.4042L20.5784 24.859C21.202 24.7423 21.7958 24.5389 22.3597 24.2487C22.9237 23.9585 23.3968 23.5816 23.7789 23.118L25.6955 24.0603L27.0252 21.8436L25.2828 20.5872C25.5457 19.947 25.6771 19.3068 25.6771 18.6667C25.6771 18.0265 25.5457 17.3863 25.2828 16.7462L27.0252 15.4897L25.6955 13.2731L23.7789 14.2154C23.3968 13.7517 22.9237 13.3748 22.3597 13.0846C21.7958 12.7944 21.202 12.591 20.5784 12.4744L20.4042 10.3205H17.7447L17.5705 12.4744C16.9469 12.591 16.3531 12.7944 15.7891 13.0846C15.2252 13.3748 14.7521 13.7517 14.37 14.2154L12.4534 13.2731L11.1237 15.4897L12.8661 16.7462C12.6032 17.3863 12.4718 18.0265 12.4718 18.6667C12.4718 19.3068 12.6032 19.947 12.8661 20.5872L11.1237 21.8436L12.4534 24.0603L14.37 23.118C14.7521 23.5816 15.2252 23.9585 15.7891 24.2487C16.3531 24.5389 16.9469 24.7423 17.5705 24.859L17.7447 27.0128ZM19.0744 23.0192C17.8364 23.0192 16.7857 22.5967 15.9221 21.7516C15.0586 20.9065 14.6268 19.8782 14.6268 18.6667C14.6268 17.4551 15.0586 16.4268 15.9221 15.5817C16.7857 14.7367 17.8364 14.3141 19.0744 14.3141C20.3125 14.3141 21.3632 14.7367 22.2268 15.5817C23.0903 16.4268 23.5221 17.4551 23.5221 18.6667C23.5221 19.8782 23.0903 20.9065 22.2268 21.7516C21.3632 22.5967 20.3125 23.0192 19.0744 23.0192Z" fill="#405220"/>
</svg>
