<svg width="50" height="37" viewBox="0 0 50 37" fill="none" xmlns="http://www.w3.org/2000/svg">
<path d="M5.21979 13.4661C4.88249 13.4661 4.59975 13.3528 4.37157 13.126C4.14339 12.8993 4.02931 12.6184 4.02931 12.2833C4.02931 11.9481 4.14339 11.6677 4.37157 11.4421C4.59975 11.2164 4.88249 11.1036 5.21979 11.1036H12.6374C13.3974 11.1036 14.0759 11.324 14.6726 11.7647C15.2694 12.2054 15.6899 12.7725 15.9341 13.4661H5.21979ZM10.0733 34.6375C12.21 34.6375 14.0263 33.8955 15.522 32.4113C17.0177 30.9272 17.7656 29.1251 17.7656 27.0049C17.7656 24.8847 17.0177 23.0826 15.522 21.5985C14.0263 20.1144 12.21 19.3723 10.0733 19.3723C7.93652 19.3723 6.12028 20.1144 4.62455 21.5985C3.12883 23.0826 2.38097 24.8847 2.38097 27.0049C2.38097 29.1251 3.12883 30.9272 4.62455 32.4113C6.12028 33.8955 7.93652 34.6375 10.0733 34.6375ZM42.8571 34.6375C44.1544 34.6375 45.2724 34.1718 46.2111 33.2405C47.1497 32.3091 47.619 31.1998 47.619 29.9126C47.619 28.6253 47.1497 27.516 46.2111 26.5847C45.2724 25.6533 44.1544 25.1876 42.8571 25.1876C41.5598 25.1876 40.4418 25.6533 39.5032 26.5847C38.5646 27.516 38.0952 28.6253 38.0952 29.9126C38.0952 31.1998 38.5646 32.3091 39.5032 33.2405C40.4418 34.1718 41.5598 34.6375 42.8571 34.6375ZM10.0625 29.64C9.32181 29.64 8.69582 29.3828 8.18453 28.8683C7.67323 28.3538 7.41759 27.7292 7.41759 26.9942C7.41759 26.2593 7.67682 25.6382 8.1953 25.1308C8.71378 24.6235 9.34336 24.3698 10.084 24.3698C10.8247 24.3698 11.4507 24.6271 11.962 25.1415C12.4733 25.656 12.729 26.2807 12.729 27.0156C12.729 27.7505 12.4697 28.3717 11.9512 28.879C11.4328 29.3863 10.8032 29.64 10.0625 29.64ZM43.956 22.8842C44.4383 22.9902 44.8489 23.1046 45.1877 23.2272C45.5266 23.3499 45.9097 23.5581 46.337 23.8519V11.3762C46.337 10.3267 45.9604 9.42832 45.2072 8.68096C44.454 7.9336 43.5485 7.55992 42.4908 7.55992H30.2381L27.7381 4.9612L31.0714 1.65373L29.4048 0L20.9524 8.38678L22.7381 10.0405L26.0714 6.73305L28.5714 9.21365V12.8301C28.5714 14.6292 27.9258 16.1693 26.6346 17.4505C25.3434 18.7317 23.7912 19.3723 21.978 19.3723H16.5614C17.0162 19.7691 17.384 20.1401 17.6649 20.4854C17.9457 20.8307 18.257 21.2471 18.5989 21.7348H21.978C24.475 21.7348 26.5949 20.87 28.3379 19.1406C30.0809 17.4111 30.9524 15.3076 30.9524 12.8301V9.92241H42.4908C42.9182 9.92241 43.2692 10.0587 43.544 10.3313C43.8187 10.6039 43.956 10.9522 43.956 11.3762V22.8842ZM35.9112 28.1862C36.0577 27.6985 36.2069 27.2854 36.3589 26.9469C36.5109 26.6084 36.7478 26.234 37.0696 25.8237H20.0458C20.113 26.2771 20.1465 26.6714 20.1465 27.0065C20.1465 27.3416 20.113 27.7349 20.0458 28.1862H35.9112ZM42.8571 37C40.8608 37 39.1712 36.314 37.7885 34.9419C36.4057 33.5699 35.7143 31.8934 35.7143 29.9126C35.7143 27.9317 36.4057 26.2553 37.7885 24.8832C39.1712 23.5112 40.8608 22.8251 42.8571 22.8251C44.8535 22.8251 46.543 23.5112 47.9258 24.8832C49.3086 26.2553 50 27.9317 50 29.9126C50 31.8934 49.3086 33.5699 47.9258 34.9419C46.543 36.314 44.8535 37 42.8571 37ZM10.0733 37C7.28633 37 4.91072 36.0255 2.94643 34.0764C0.982144 32.1274 0 29.7702 0 27.0049C0 24.2396 0.985196 21.8824 2.95559 19.9334C4.92598 17.9843 7.29854 17.0098 10.0733 17.0098C12.848 17.0098 15.2206 17.9843 17.1909 19.9334C19.1613 21.8824 20.1465 24.2412 20.1465 27.0065C20.1465 29.7718 19.1644 32.1274 17.2001 34.0764C15.2358 36.0255 12.8602 37 10.0733 37Z" fill="#405220"/>
</svg>
